<?xml version="1.0" encoding="utf-8"?>
<!-- Generator: Adobe Illustrator 19.0.0, SVG Export Plug-In . SVG Version: 6.00 Build 0)  -->
<svg version="1.1" xmlns="http://www.w3.org/2000/svg" xmlns:xlink="http://www.w3.org/1999/xlink" x="0px" y="0px"
	 viewBox="0 0 960 560" style="enable-background:new 0 0 960 560;" xml:space="preserve">
<style type="text/css">
	.st0{fill:#FFA10D;}
	.st1{clip-path:url(#XMLID_25_);fill:#FFA10D;}
	.st2{clip-path:url(#XMLID_25_);fill:#D17E11;}
	.st3{fill:#CCCCCC;}
	.st4{clip-path:url(#XMLID_26_);fill:#808080;}
	.st5{fill:#FF9C00;}
	.st6{fill:#FFFFFF;}
	.st7{clip-path:url(#XMLID_34_);fill:#595959;}
	.st8{clip-path:url(#XMLID_34_);}
	.st9{clip-path:url(#XMLID_35_);fill:#808080;}
	.st10{clip-path:url(#XMLID_35_);fill:#666666;}
	.st11{clip-path:url(#XMLID_35_);fill:#FFFFFF;}
	.st12{clip-path:url(#XMLID_36_);fill:#FFFFFF;}
	.st13{clip-path:url(#XMLID_36_);fill:#B3B3B3;}
	.st14{fill:#B3B3B3;}
</style>
<g id="SIM">
	<g id="XMLID_1_">
		<g id="XMLID_134_">
			<path id="XMLID_135_" class="st0" d="M207.4,305.3l20.6-29.4c9.8,9.4,24.5,16.9,42.1,16.9c7.4,0,14.5-2,14.5-7.1
				c0-12.5-72.9,0.2-72.9-51.4c0-22.1,18.4-43.3,54.3-43.3c21.4,0,40.6,6.1,55.5,18.2l-21.2,28c-11.4-8.6-26.1-12.9-38.4-12.9
				c-7.8,0-10,2.5-10,5.9c0,12.3,72.7,1.8,72.7,50.4c0,28.8-21.4,45.5-56.4,45.5C240.3,326.1,221.3,317.8,207.4,305.3z"/>
		</g>
		<g id="XMLID_32_">
			<path id="XMLID_33_" class="st0" d="M612,323v-78.6L582.8,323h-17.6L536,244.4V323h-39.6V192.2H551l22.9,62.7l22.9-62.7h54.7V323
				H612z"/>
		</g>
		<g id="XMLID_4_">
			<g id="Body_1_">
				<defs>
					<path id="XMLID_14_" d="M425,296.2h-37.4c-0.6,0-1.2-0.5-1.2-1.2v-62.2c0-0.6,0.5-1.2,1.2-1.2H425c0.6,0,1.2,0.5,1.2,1.2v62.2
						C426.2,295.7,425.7,296.2,425,296.2z"/>
				</defs>
				<clipPath id="XMLID_25_">
					<use xlink:href="#XMLID_14_"  style="overflow:visible;"/>
				</clipPath>
				<path id="XMLID_17_" class="st1" d="M425,296.2h-37.4c-0.6,0-1.2-0.5-1.2-1.2v-62.2c0-0.6,0.5-1.2,1.2-1.2H425
					c0.6,0,1.2,0.5,1.2,1.2v62.2C426.2,295.7,425.7,296.2,425,296.2z"/>
				<rect id="XMLID_16_" x="381.7" y="229.8" class="st2" width="13.1" height="67.9"/>
			</g>
			<g id="Base_2_">
				<rect id="XMLID_13_" x="446.7" y="301.8" class="st3" width="2.5" height="18.4"/>
				<rect id="XMLID_12_" x="361.3" y="301.8" class="st3" width="2.5" height="18.4"/>
				<path id="XMLID_11_" class="st0" d="M452.2,303.8h-94.3c-0.5,0-0.9-0.4-0.9-0.9v-2.2c0-0.5,0.4-0.9,0.9-0.9h94.3
					c0.5,0,0.9,0.4,0.9,0.9v2.2C453.1,303.4,452.7,303.8,452.2,303.8z"/>
				<path id="XMLID_10_" class="st0" d="M452.2,322.9h-94.3c-0.5,0-0.9-0.4-0.9-0.9v-2.2c0-0.5,0.4-0.9,0.9-0.9h94.3
					c0.5,0,0.9,0.4,0.9,0.9v2.2C453.1,322.5,452.7,322.9,452.2,322.9z"/>
			</g>
			<g id="Face_1_">
				<defs>
					<path id="XMLID_5_" d="M438.4,225.9h-66.7c-1.4,0-2.6-1.1-2.6-2.6v-27.1c0-1.4,1.1-2.6,2.6-2.6h66.7c1.4,0,2.6,1.1,2.6,2.6
						v27.1C441,224.8,439.8,225.9,438.4,225.9z"/>
				</defs>
				<clipPath id="XMLID_26_">
					<use xlink:href="#XMLID_5_"  style="overflow:visible;"/>
				</clipPath>
				<path id="XMLID_6_" class="st4" d="M405.1,229c-11.8,0-23.5,0-35.3,0c-0.1,0-0.2,0-0.2-0.2c0-12.7,0-25.3,0-38
					c0-0.1,0-0.2,0.2-0.2c23.5,0,47,0,70.5,0c0.1,0,0.2,0,0.2,0.2c0,12.7,0,25.3,0,38c0,0.1,0,0.2-0.2,0.2
					C428.6,229,416.8,229,405.1,229z M396,209.5c0-0.1,0-0.2,0-0.3c-0.1-1.5-0.1-2.9-0.5-4.4c-0.3-0.9-0.7-1.6-1.6-2.1
					c-0.5-0.3-1-0.5-1.6-0.6c-1.6-0.3-3.2-0.4-4.8-0.2c-0.8,0.1-1.6,0.3-2.4,0.6c-0.6,0.3-1,0.7-1.4,1.2c-0.2,0.3-0.3,0.6-0.4,1
					c-0.4,1.3-0.4,2.7-0.5,4c-0.1,0.9-0.1,1.8,0,2.7c0.1,0.7,0.1,1.4,0.2,2.1c0.1,0.8,0.3,1.7,0.8,2.4c0.2,0.3,0.5,0.5,0.7,0.7
					c0.7,0.4,1.5,0.6,2.3,0.8c1.4,0.2,2.8,0.3,4.2,0.1c0.8-0.1,1.7-0.3,2.5-0.6c0.6-0.3,1.1-0.7,1.4-1.3c0.4-0.6,0.5-1.3,0.7-2
					C396,212.3,396.1,210.9,396,209.5z M426.4,210.3c0-1.3,0-2.3-0.2-3.4c-0.1-0.9-0.2-1.7-0.6-2.5c-0.2-0.5-0.5-0.9-0.9-1.3
					c-0.5-0.4-1.1-0.6-1.7-0.8c-1.2-0.3-2.4-0.4-3.7-0.4c-1.1,0-2.3,0.2-3.3,0.5c-0.5,0.2-1.1,0.5-1.5,0.9c-0.5,0.6-0.8,1.3-1,2
					c-0.4,2.1-0.5,4.3-0.3,6.4c0.1,1.1,0.2,2.3,0.7,3.3c0.3,0.6,0.7,1.2,1.3,1.5c0.5,0.3,1.1,0.5,1.7,0.6c1.2,0.3,2.4,0.3,3.7,0.3
					c1,0,2-0.2,3-0.5c0.5-0.2,0.9-0.4,1.3-0.7c0.4-0.3,0.6-0.8,0.9-1.3c0.1-0.3,0.2-0.6,0.3-0.9
					C426.3,212.8,426.4,211.4,426.4,210.3z"/>
			</g>
		</g>
	</g>
</g>
<g id="SIM_x5F_White">
	<rect id="XMLID_72_" x="1045" class="st5" width="960" height="560"/>
	<g id="XMLID_3_">
		<g id="XMLID_130_">
			<path id="XMLID_131_" class="st6" d="M1273.4,313.8l20.6-29.4c9.8,9.4,24.5,16.9,42.1,16.9c7.4,0,14.5-2,14.5-7.1
				c0-12.5-72.9,0.2-72.9-51.4c0-22.1,18.4-43.3,54.3-43.3c21.4,0,40.6,6.1,55.5,18.2l-21.2,28c-11.4-8.6-26.1-12.9-38.4-12.9
				c-7.8,0-10,2.5-10,5.9c0,12.3,72.7,1.8,72.7,50.4c0,28.8-21.4,45.5-56.4,45.5C1306.4,334.6,1287.4,326.4,1273.4,313.8z"/>
		</g>
		<g id="XMLID_127_">
			<path id="XMLID_128_" class="st6" d="M1678.1,331.5v-78.6l-29.2,78.6h-17.6l-29.2-78.6v78.6h-39.6V200.8h54.7l22.9,62.7
				l22.9-62.7h54.7v130.7H1678.1z"/>
		</g>
		<g id="XMLID_15_">
			<g id="Face_2_">
				<defs>
					<path id="XMLID_18_" d="M1504.4,234.5h-66.2c-1.4,0-2.6-1.1-2.6-2.6v-27.1c0-1.4,1.1-2.6,2.6-2.6h66.2c1.4,0,2.6,1.1,2.6,2.6
						v27.1C1507,233.3,1505.9,234.5,1504.4,234.5z"/>
				</defs>
				<clipPath id="XMLID_34_">
					<use xlink:href="#XMLID_18_"  style="overflow:visible;"/>
				</clipPath>
				<rect id="XMLID_86_" x="1435.6" y="202.3" class="st7" width="71" height="32.2"/>
				<g id="screen-face" class="st8">
					<defs>
						<path id="XMLID_21_" d="M1501.6,232.1h-60.4c-0.9,0-1.7-0.7-1.7-1.7v-24.1c0-0.9,0.7-1.7,1.7-1.7h60.4c0.9,0,1.7,0.7,1.7,1.7
							v24.1C1503.2,231.3,1502.5,232.1,1501.6,232.1z"/>
					</defs>
					<clipPath id="XMLID_35_">
						<use xlink:href="#XMLID_21_"  style="overflow:visible;"/>
					</clipPath>
					<polygon id="XMLID_20_" class="st9" points="1503.2,231.7 1439.2,231.8 1439,204.7 1503.3,204.6 					"/>
					<polygon id="XMLID_19_" class="st10" points="1475,231.7 1436.2,231.8 1436,204.7 1459.6,204.6 					"/>
					<path id="XMLID_88_" class="st11" d="M1462.3,218.2c0-0.1,0-0.2,0-0.3c-0.1-1.5-0.1-2.9-0.5-4.4c-0.3-0.9-0.7-1.6-1.6-2.1
						c-0.5-0.3-1-0.5-1.6-0.6c-1.6-0.3-3.2-0.4-4.8-0.2c-0.8,0.1-1.6,0.3-2.4,0.6c-0.6,0.3-1,0.7-1.4,1.2c-0.2,0.3-0.3,0.6-0.4,1
						c-0.4,1.3-0.4,2.7-0.5,4c-0.1,0.9,0,1.9,0,2.8c0.1,0.6,0.1,1.3,0.2,1.9c0.1,0.8,0.3,1.7,0.8,2.4c0.2,0.3,0.5,0.5,0.7,0.7
						c0.8,0.5,1.8,0.7,2.7,0.8c1.1,0.2,2.2,0.2,3.3,0.1c1-0.1,2-0.2,2.9-0.7c0.6-0.3,1.1-0.7,1.4-1.3c0.3-0.6,0.5-1.2,0.6-1.8
						C1462.2,221,1462.3,219.6,1462.3,218.2z"/>
					<path id="XMLID_87_" class="st11" d="M1492.7,218.9c0-1.3,0-2.3-0.2-3.4c-0.1-0.9-0.2-1.7-0.6-2.5c-0.2-0.5-0.5-0.9-0.9-1.3
						c-0.6-0.4-1.2-0.7-1.9-0.8c-1-0.2-2-0.3-3-0.3c-1.3,0-2.6,0.1-3.9,0.6c-0.5,0.2-1.1,0.5-1.4,0.9c-0.5,0.6-0.8,1.3-1,2
						c-0.4,2.1-0.5,4.3-0.3,6.4c0.1,1.2,0.2,2.3,0.7,3.4c0.3,0.6,0.7,1.1,1.3,1.5c0.6,0.3,1.2,0.5,1.8,0.7c0.9,0.2,1.8,0.3,2.8,0.3
						c1.3,0,2.5-0.1,3.7-0.5c0.5-0.2,0.9-0.4,1.3-0.7c0.4-0.3,0.6-0.8,0.9-1.3c0.1-0.3,0.2-0.6,0.3-0.9
						C1492.6,221.4,1492.7,220,1492.7,218.9z"/>
				</g>
			</g>
			<g id="Body_2_">
				<defs>
					<path id="XMLID_29_" d="M1491.1,304.8h-37.4c-0.6,0-1.2-0.5-1.2-1.2v-62.2c0-0.6,0.5-1.2,1.2-1.2h37.4c0.6,0,1.2,0.5,1.2,1.2
						v62.2C1492.2,304.3,1491.7,304.8,1491.1,304.8z"/>
				</defs>
				<clipPath id="XMLID_36_">
					<use xlink:href="#XMLID_29_"  style="overflow:visible;"/>
				</clipPath>
				<path id="XMLID_31_" class="st12" d="M1491.1,304.8h-37.4c-0.6,0-1.2-0.5-1.2-1.2v-62.2c0-0.6,0.5-1.2,1.2-1.2h37.4
					c0.6,0,1.2,0.5,1.2,1.2v62.2C1492.2,304.3,1491.7,304.8,1491.1,304.8z"/>
				<rect id="XMLID_30_" x="1447.7" y="238.4" class="st13" width="13.1" height="67.9"/>
			</g>
			<g id="Base_1_">
				<rect id="XMLID_28_" x="1512.7" y="310.3" class="st14" width="2.5" height="18.4"/>
				<rect id="XMLID_27_" x="1427.3" y="310.4" class="st14" width="2.5" height="18.4"/>
				<path id="XMLID_24_" class="st6" d="M1518.3,312.3h-94.3c-0.5,0-0.9-0.4-0.9-0.9v-2.2c0-0.5,0.4-0.9,0.9-0.9h94.3
					c0.5,0,0.9,0.4,0.9,0.9v2.2C1519.2,311.9,1518.8,312.3,1518.3,312.3z"/>
				<path id="XMLID_23_" class="st6" d="M1518.3,331.4h-94.3c-0.5,0-0.9-0.4-0.9-0.9v-2.2c0-0.5,0.4-0.9,0.9-0.9h94.3
					c0.5,0,0.9,0.4,0.9,0.9v2.2C1519.2,331,1518.8,331.4,1518.3,331.4z"/>
			</g>
		</g>
	</g>
</g>
</svg>
