<svg xmlns="http://www.w3.org/2000/svg" xmlns:xlink="http://www.w3.org/1999/xlink" viewBox="0 0 444.21 135.04"><defs><style>.cls-1{fill:none;}.cls-2{fill:#fff;}.cls-3{clip-path:url(#clip-path);}.cls-4{fill:#595959;}.cls-5{clip-path:url(#clip-path-2);}.cls-6{fill:gray;}.cls-7{fill:#666;}.cls-8{clip-path:url(#clip-path-3);}.cls-9{fill:#b3b3b3;}</style><clipPath id="clip-path"><rect id="_Rectangle_" data-name="&lt;Rectangle&gt;" class="cls-1" x="162.26" y="2.7" width="71.31" height="32.2" rx="2.56" ry="2.56"/></clipPath><clipPath id="clip-path-2"><rect id="_Rectangle_2" data-name="&lt;Rectangle&gt;" class="cls-1" x="166.07" y="5.09" width="63.71" height="27.42" rx="1.65" ry="1.65"/></clipPath><clipPath id="clip-path-3"><rect id="_Rectangle_3" data-name="&lt;Rectangle&gt;" class="cls-1" x="179.12" y="40.74" width="39.67" height="64.48" rx="1.15" ry="1.15"/></clipPath></defs><title>Asset 1</title><g id="Layer_2" data-name="Layer 2"><g id="SIM_White"><g id="_Group_" data-name="&lt;Group&gt;"><g id="_Group_2" data-name="&lt;Group&gt;"><path id="_Compound_Path_" data-name="&lt;Compound Path&gt;" class="cls-2" d="M0,114.27l20.58-29.4a60.93,60.93,0,0,0,42.14,16.86c7.45,0,14.5-2,14.5-7.06,0-12.54-72.91.2-72.91-51.35C4.31,21.17,22.74,0,58.6,0,80,0,99.18,6.08,114.07,18.23l-21.17,28A66.07,66.07,0,0,0,54.49,33.32c-7.84,0-10,2.55-10,5.88,0,12.35,72.72,1.76,72.72,50.37,0,28.81-21.36,45.47-56.45,45.47C32.93,135,13.92,126.81,0,114.27Z"/></g><g id="_Group_3" data-name="&lt;Group&gt;"><path id="_Compound_Path_2" data-name="&lt;Compound Path&gt;" class="cls-2" d="M404.62,131.94V53.34l-29.2,78.6H357.78l-29.2-78.6v78.6H289V1.21h54.68L366.6,63.93,389.53,1.21h54.68V131.94Z"/></g><g id="_Group_4" data-name="&lt;Group&gt;"><g id="Face"><g class="cls-3"><rect id="_Rectangle_4" data-name="&lt;Rectangle&gt;" class="cls-4" x="162.17" y="2.7" width="70.95" height="32.2"/><g id="screen-face"><g class="cls-5"><polygon id="_Path_" data-name="&lt;Path&gt;" class="cls-6" points="229.72 32.11 165.8 32.23 165.56 5.17 229.82 5.05 229.72 32.11"/><polygon id="_Path_2" data-name="&lt;Path&gt;" class="cls-7" points="201.54 32.11 162.8 32.23 162.56 5.17 186.12 5.05 201.54 32.11"/><path id="_Path_3" data-name="&lt;Path&gt;" class="cls-2" d="M188.87,18.58c0-.09,0-.19,0-.28a17.85,17.85,0,0,0-.54-4.38,3.28,3.28,0,0,0-1.57-2.1,5.85,5.85,0,0,0-1.58-.57,14.39,14.39,0,0,0-4.83-.19,8.21,8.21,0,0,0-2.42.63,3.13,3.13,0,0,0-1.38,1.25,3.5,3.5,0,0,0-.37,1,21.44,21.44,0,0,0-.51,4,16.64,16.64,0,0,0,0,2.78c.06.64.08,1.28.19,1.92a4.84,4.84,0,0,0,.82,2.37,2.83,2.83,0,0,0,.75.7,7.15,7.15,0,0,0,2.7.84,14.53,14.53,0,0,0,3.34.08,8.25,8.25,0,0,0,2.9-.68,3.22,3.22,0,0,0,1.42-1.28,6.15,6.15,0,0,0,.64-1.8A19,19,0,0,0,188.87,18.58Z"/><path id="_Path_4" data-name="&lt;Path&gt;" class="cls-2" d="M219.24,19.28a26.77,26.77,0,0,0-.18-3.37,8.39,8.39,0,0,0-.55-2.54,3.1,3.1,0,0,0-.91-1.26,5,5,0,0,0-1.89-.83,12.4,12.4,0,0,0-3-.33,11.67,11.67,0,0,0-3.87.56,3.58,3.58,0,0,0-1.45.88,4,4,0,0,0-1,2,23.12,23.12,0,0,0-.3,6.44,10.14,10.14,0,0,0,.74,3.4,3.32,3.32,0,0,0,1.27,1.48,5.68,5.68,0,0,0,1.8.66,12.94,12.94,0,0,0,2.76.25,12.15,12.15,0,0,0,3.73-.53,4.28,4.28,0,0,0,1.32-.7,3.29,3.29,0,0,0,.86-1.29,4,4,0,0,0,.25-.92A22,22,0,0,0,219.24,19.28Z"/></g></g></g></g><g id="Body"><g class="cls-8"><rect id="_Rectangle_5" data-name="&lt;Rectangle&gt;" class="cls-2" x="179.12" y="40.74" width="39.67" height="64.48" rx="1.15" ry="1.15"/><rect id="_Rectangle_6" data-name="&lt;Rectangle&gt;" class="cls-9" x="174.27" y="38.78" width="13.12" height="67.95"/></g></g><g id="Base"><rect id="_Rectangle_7" data-name="&lt;Rectangle&gt;" class="cls-9" x="239.27" y="110.75" width="2.5" height="18.43"/><rect id="_Rectangle_8" data-name="&lt;Rectangle&gt;" class="cls-9" x="153.89" y="110.81" width="2.5" height="18.43"/><rect id="_Rectangle_9" data-name="&lt;Rectangle&gt;" class="cls-2" x="149.56" y="108.75" width="96.17" height="4" rx="0.92" ry="0.92"/><rect id="_Rectangle_10" data-name="&lt;Rectangle&gt;" class="cls-2" x="149.56" y="127.86" width="96.17" height="4" rx="0.92" ry="0.92"/></g></g></g></g></g></svg>